<svg aria-hidden="true" style="width:0;height:0;position:absolute;overflow:hidden" xmlns="http://www.w3.org/2000/svg"><defs><symbol id="icon-Group-422" viewBox="0 0 32 32"><path fill="#fff" style="fill:var(--color1,#fff)" opacity=".8" d="M32 16c0 8.837-7.163 16-16 16S0 24.837 0 16 7.163 0 16 0s16 7.163 16 16z"/><path fill="none" stroke="#fff" style="stroke:var(--color1,#fff)" stroke-width=".457" d="M31.771 16c0 8.71-7.061 15.771-15.771 15.771S.229 24.71.229 16 7.29.229 16 .229 31.771 7.29 31.771 16z"/><path fill="#fff" style="fill:var(--color1,#fff)" opacity=".8" d="M28.343 16c0 6.817-5.526 12.343-12.343 12.343S3.657 22.817 3.657 16 9.183 3.657 16 3.657 28.343 9.183 28.343 16z"/></symbol><symbol id="icon-Group-421" viewBox="0 0 32 32"><path fill="#1d1d1d" style="fill:var(--color2,#1d1d1d)" d="M32 16c0 8.837-7.163 16-16 16S0 24.837 0 16 7.163 0 16 0s16 7.163 16 16z"/><path fill="none" stroke="#fff" style="stroke:var(--color1,#fff)" stroke-width=".457" d="M31.771 16c0 8.71-7.061 15.771-15.771 15.771S.229 24.71.229 16 7.29.229 16 .229 31.771 7.29 31.771 16z"/><path style="fill:var(--color3,#000);stroke:var(--color4,#df3d3a)" stroke="#df3d3a" stroke-width=".914" d="M27.886 16c0 6.564-5.321 11.886-11.886 11.886S4.114 22.565 4.114 16C4.114 9.436 9.435 4.114 16 4.114S27.886 9.435 27.886 16z"/></symbol><symbol id="icon-Vector" viewBox="0 0 31 32"><path stroke-width="2.783" d="M1.391 29.783 29.217 1.957m0 0H1.391m27.826 0v27.826"/></symbol><symbol id="black" viewBox="0 0 32 32"><path fill="#1d1d1d" style="fill:var(--color1,#1d1d1d)" d="M32 16c0 8.837-7.163 16-16 16S0 24.837 0 16 7.163 0 16 0s16 7.163 16 16z"/><path fill="none" stroke="#fff" style="stroke:var(--color2,#fff)" stroke-width=".457" d="M31.771 16c0 8.71-7.061 15.771-15.771 15.771S.229 24.71.229 16 7.29.229 16 .229 31.771 7.29 31.771 16z"/><path style="fill:var(--color3,#000)" d="M28.343 16c0 6.817-5.526 12.343-12.343 12.343S3.657 22.817 3.657 16 9.183 3.657 16 3.657 28.343 9.183 28.343 16z"/></symbol><symbol id="white" viewBox="0 0 32 32"><path fill="#cfcfcf" style="fill:var(--color4,#cfcfcf)" d="M32 16c0 8.837-7.163 16-16 16S0 24.837 0 16 7.163 0 16 0s16 7.163 16 16z"/><path fill="none" stroke="#fff" style="stroke:var(--color2,#fff)" stroke-width=".457" d="M31.771 16c0 8.71-7.061 15.771-15.771 15.771S.229 24.71.229 16 7.29.229 16 .229 31.771 7.29 31.771 16z"/><path fill="#fcfcfc" style="fill:var(--color5,#fcfcfc);stroke:var(--color6,#df3d3a)" stroke="#df3d3a" stroke-width=".914" d="M27.886 16c0 6.564-5.321 11.886-11.886 11.886S4.114 22.565 4.114 16C4.114 9.436 9.435 4.114 16 4.114S27.886 9.435 27.886 16z"/></symbol></defs></svg>